<svg xmlns="http://www.w3.org/2000/svg" xmlns:xlink="http://www.w3.org/1999/xlink" width="40" zoomAndPan="magnify" viewBox="0 0 30 30.000001" height="40" preserveAspectRatio="xMidYMid meet" version="1.0"><defs><filter x="0%" y="0%" width="100%" height="100%" id="604411bb85"><feColorMatrix values="0 0 0 0 1 0 0 0 0 1 0 0 0 0 1 0 0 0 1 0" color-interpolation-filters="sRGB"/></filter><clipPath id="e64997d65b"><path d="M 0.484375 0 L 29.515625 0 L 29.515625 29.03125 L 0.484375 29.03125 Z M 0.484375 0 " clip-rule="nonzero"/></clipPath><mask id="87a3d63f25"><g filter="url(#604411bb85)"><rect x="-3" width="36" fill="#000000" y="-3" height="36.000001" fill-opacity="0.62"/></g></mask><clipPath id="d4ecbde227"><path d="M 0.484375 0 L 29.515625 0 L 29.515625 29.03125 L 0.484375 29.03125 Z M 0.484375 0 " clip-rule="nonzero"/></clipPath><clipPath id="60737eef5e"><rect x="0" width="30" y="0" height="30"/></clipPath></defs><g clip-path="url(#e64997d65b)"><g mask="url(#87a3d63f25)"><g transform="matrix(1, 0, 0, 1, 0, 0.000000000000005692)"><g clip-path="url(#60737eef5e)"><path fill="#2a485e" d="M 17.902344 11.613281 C 17.902344 13.210938 16.597656 14.515625 15 14.515625 C 13.402344 14.515625 12.097656 13.210938 12.097656 11.613281 C 12.097656 10.015625 13.402344 8.710938 15 8.710938 C 16.597656 8.710938 17.902344 10.015625 17.902344 11.613281 Z M 17.902344 11.613281 " fill-opacity="1" fill-rule="nonzero"/><g clip-path="url(#d4ecbde227)"><path fill="#2a485e" d="M 15 0 C 7.015625 0 0.484375 6.53125 0.484375 14.515625 C 0.484375 22.5 7.015625 29.03125 15 29.03125 C 22.984375 29.03125 29.515625 22.5 29.515625 14.515625 C 29.515625 6.53125 22.984375 0 15 0 Z M 15 23.226562 C 15 23.226562 9.195312 14.804688 9.195312 11.613281 C 9.195312 8.417969 11.804688 5.804688 15 5.804688 C 18.195312 5.804688 20.804688 8.417969 20.804688 11.613281 C 20.804688 14.804688 15 23.226562 15 23.226562 Z M 15 23.226562 " fill-opacity="1" fill-rule="nonzero"/></g><path fill="#ffffff" d="M 17.902344 11.613281 C 17.902344 13.210938 16.597656 14.515625 15 14.515625 C 13.402344 14.515625 12.097656 13.210938 12.097656 11.613281 C 12.097656 10.015625 13.402344 8.710938 15 8.710938 C 16.597656 8.710938 17.902344 10.015625 17.902344 11.613281 Z M 17.902344 11.613281 " fill-opacity="1" fill-rule="nonzero"/><path fill="#2a485e" d="M 17.902344 11.613281 C 17.902344 13.210938 16.597656 14.515625 15 14.515625 C 13.402344 14.515625 12.097656 13.210938 12.097656 11.613281 C 12.097656 10.015625 13.402344 8.710938 15 8.710938 C 16.597656 8.710938 17.902344 10.015625 17.902344 11.613281 Z M 17.902344 11.613281 " fill-opacity="1" fill-rule="nonzero"/></g></g></g></g></svg>