<svg xmlns="http://www.w3.org/2000/svg" xmlns:xlink="http://www.w3.org/1999/xlink" width="500" zoomAndPan="magnify" viewBox="0 0 375 30.000001" height="40" preserveAspectRatio="xMidYMid meet" version="1.0"><defs><clipPath id="07bb050bfe"><path d="M 6.144531 0.917969 L 289.734375 0.917969 L 289.734375 27.765625 L 6.144531 27.765625 Z M 6.144531 0.917969 " clip-rule="nonzero"/></clipPath></defs><g clip-path="url(#07bb050bfe)"><path fill="#d9d9d9" d="M 29.449219 2.0625 C 41.679688 1.90625 49.488281 1.496094 59.355469 1.671875 C 68.214844 1.828125 56.835938 1.511719 97.515625 1.671875 C 129.824219 1.800781 126.625 1.960938 138.25 1.910156 C 164.25 1.804688 162.414062 1.082031 188.753906 0.9375 C 206.21875 0.839844 205.613281 1.167969 236.199219 1.152344 C 259.683594 1.136719 257.402344 1.417969 259.941406 1.285156 C 264.773438 1.027344 268.800781 1.121094 276.851562 1.3125 C 283.476562 1.46875 286.789062 2.082031 288.28125 4.28125 C 289.039062 5.402344 289.207031 6.902344 289.542969 9.898438 C 289.5625 10.078125 289.578125 10.214844 289.585938 10.296875 C 289.65625 11.007812 289.84375 13.167969 289.636719 16 C 289.527344 17.472656 289.296875 19.296875 288.816406 21.355469 C 288.359375 22.292969 287.554688 23.5625 286.148438 24.414062 C 284.367188 25.488281 282.910156 25.117188 278.964844 24.949219 C 275.261719 24.789062 271.554688 25.097656 267.851562 25.121094 C 267.851562 25.121094 264.761719 25.027344 262.027344 24.984375 C 257.457031 24.910156 252.289062 24.996094 252.289062 24.996094 C 252.289062 24.996094 249.722656 25.121094 248.089844 25.199219 C 247.515625 25.226562 245.316406 25.328125 242.679688 25.4375 C 241.242188 25.496094 238.835938 25.597656 236.007812 25.691406 C 234.988281 25.722656 232.277344 25.796875 227.773438 25.902344 C 224.25 25.984375 219.25 26.0625 210.441406 26.105469 C 196.066406 26.175781 194.75 26.035156 172.796875 26.0625 C 158.078125 26.082031 150.511719 26.09375 140.351562 26.257812 C 130.484375 26.417969 130.511719 26.515625 112.9375 26.890625 C 101.078125 27.144531 90.898438 27.320312 82.539062 27.441406 C 73.304688 27.582031 65.167969 27.699219 54.199219 27.75 C 44.53125 27.792969 40.464844 27.742188 38.058594 27.703125 C 30.421875 27.582031 20.917969 27.289062 20.917969 27.289062 C 20.917969 27.289062 10.699219 28.207031 7.261719 23.730469 C 5.863281 21.90625 6.042969 19.164062 6.398438 13.671875 C 6.683594 9.296875 6.828125 7.105469 7.789062 5.566406 C 9.71875 2.476562 13.6875 2.261719 29.449219 2.0625 " fill-opacity="1" fill-rule="nonzero"/></g></svg>