<svg xmlns="http://www.w3.org/2000/svg" xmlns:xlink="http://www.w3.org/1999/xlink" width="40" zoomAndPan="magnify" viewBox="0 0 30 30.000001" height="40" preserveAspectRatio="xMidYMid meet" version="1.0"><defs><filter x="0%" y="0%" width="100%" height="100%" id="a779f50753"><feColorMatrix values="0 0 0 0 1 0 0 0 0 1 0 0 0 0 1 0 0 0 1 0" color-interpolation-filters="sRGB"/></filter><clipPath id="49c1046c76"><path d="M 0.484375 0 L 29.515625 0 L 29.515625 29.03125 L 0.484375 29.03125 Z M 0.484375 0 " clip-rule="nonzero"/></clipPath><mask id="a1a5838e4a"><g filter="url(#a779f50753)"><rect x="-3" width="36" fill="#000000" y="-3" height="36.000001" fill-opacity="0.62"/></g></mask><clipPath id="a43ecc4c68"><path d="M 0.484375 0 L 29.515625 0 L 29.515625 29.03125 L 0.484375 29.03125 Z M 0.484375 0 " clip-rule="nonzero"/></clipPath><clipPath id="69da497300"><rect x="0" width="30" y="0" height="30"/></clipPath></defs><g clip-path="url(#49c1046c76)"><g mask="url(#a1a5838e4a)"><g transform="matrix(1, 0, 0, 1, 0, 0.000000000000005692)"><g clip-path="url(#69da497300)"><g clip-path="url(#a43ecc4c68)"><path fill="#2a485e" d="M 22.773438 15.78125 C 22.765625 15.78125 22.753906 15.78125 22.746094 15.78125 C 22.484375 15.78125 22.265625 15.578125 22.25 15.316406 C 22.132812 13.304688 21.304688 11.394531 19.921875 9.933594 C 18.539062 8.476562 16.675781 7.546875 14.671875 7.320312 C 14.402344 7.289062 14.207031 7.042969 14.238281 6.773438 C 14.269531 6.5 14.515625 6.304688 14.785156 6.335938 C 17.015625 6.589844 19.097656 7.625 20.640625 9.253906 C 22.183594 10.882812 23.105469 13.015625 23.238281 15.257812 C 23.253906 15.527344 23.046875 15.761719 22.773438 15.78125 Z M 14.542969 9.910156 C 14.570312 9.636719 14.816406 9.445312 15.089844 9.472656 C 16.417969 9.625 17.65625 10.242188 18.574219 11.210938 C 19.496094 12.179688 20.042969 13.449219 20.125 14.785156 C 20.140625 15.058594 19.933594 15.292969 19.660156 15.308594 C 19.648438 15.308594 19.640625 15.308594 19.628906 15.308594 C 19.371094 15.308594 19.152344 15.105469 19.136719 14.84375 C 19.070312 13.742188 18.617188 12.691406 17.859375 11.890625 C 17.097656 11.089844 16.074219 10.582031 14.976562 10.457031 C 14.707031 10.425781 14.511719 10.179688 14.542969 9.910156 Z M 21.976562 22.164062 C 21.964844 22.179688 21.390625 22.722656 21.375 22.734375 C 20.308594 23.757812 18.636719 23.960938 17.25 23.636719 C 16.742188 23.519531 16.25 23.347656 15.773438 23.140625 C 13.621094 22.207031 11.578125 20.550781 9.9375 18.808594 C 8.285156 17.078125 6.742188 14.949219 5.925781 12.75 C 5.742188 12.261719 5.597656 11.761719 5.507812 11.25 C 5.257812 9.847656 5.550781 8.1875 6.628906 7.179688 C 6.644531 7.164062 7.21875 6.621094 7.234375 6.605469 C 8.300781 5.667969 9.214844 6.859375 10.066406 7.773438 C 10.796875 8.554688 12.019531 9.839844 11.816406 11.015625 C 11.703125 11.667969 11.007812 12.144531 10.769531 12.785156 C 10.460938 13.601562 10.605469 14.414062 11.121094 15.109375 C 11.464844 15.578125 11.886719 16.074219 12.335938 16.539062 C 12.773438 17.007812 13.246094 17.457031 13.695312 17.824219 C 14.363281 18.378906 15.167969 18.566406 16 18.300781 C 16.648438 18.097656 17.164062 17.429688 17.820312 17.351562 C 19.003906 17.210938 20.222656 18.503906 20.964844 19.269531 C 21.832031 20.171875 22.972656 21.144531 21.976562 22.164062 Z M 15 -0.00390625 C 6.984375 -0.00390625 0.484375 6.496094 0.484375 14.511719 C 0.484375 22.527344 6.984375 29.027344 15 29.027344 C 23.015625 29.027344 29.515625 22.527344 29.515625 14.511719 C 29.515625 6.496094 23.015625 -0.00390625 15 -0.00390625 " fill-opacity="1" fill-rule="nonzero"/></g></g></g></g></g></svg>