<?xml version="1.0" standalone="no"?>
<!DOCTYPE svg PUBLIC "-//W3C//DTD SVG 20010904//EN"
 "http://www.w3.org/TR/2001/REC-SVG-20010904/DTD/svg10.dtd">
<svg version="1.0" xmlns="http://www.w3.org/2000/svg"
 width="540.000000pt" height="540.000000pt" viewBox="0 0 540.000000 540.000000"
 preserveAspectRatio="xMidYMid meet">
<metadata>
Created by potrace 1.14, written by Peter Selinger 2001-2017
</metadata>
<g transform="translate(0.000000,540.000000) scale(0.100000,-0.100000)"
fill="#000000" stroke="none">
<path d="M2458 5055 c-2 -2 -39 -5 -83 -9 -44 -3 -93 -8 -110 -11 -16 -3 -106
-8 -200 -9 -251 -6 -281 -9 -510 -61 -85 -19 -404 -157 -425 -184 -3 -3 -22
-15 -42 -26 -21 -11 -38 -23 -38 -27 0 -5 -6 -8 -13 -8 -8 0 -22 -9 -32 -20
-10 -11 -23 -20 -28 -20 -6 0 -17 -7 -26 -15 -9 -8 -36 -31 -61 -51 -236 -189
-483 -530 -585 -809 -10 -27 -22 -54 -25 -60 -8 -10 -29 -73 -31 -90 -1 -5 -6
-21 -11 -35 -5 -14 -11 -32 -13 -40 -3 -8 -7 -25 -11 -37 -5 -19 -2 -23 14
-23 17 0 25 15 47 85 58 186 153 387 256 543 27 41 49 78 49 83 0 4 3 9 8 11
4 2 23 23 42 48 70 91 219 245 290 300 24 19 52 42 62 50 37 33 53 45 73 56
37 19 70 39 85 50 32 24 117 67 189 96 42 17 87 35 101 41 14 6 30 11 36 12 6
0 28 8 50 17 80 34 240 63 399 72 l90 6 -80 -26 c-44 -14 -87 -28 -95 -31 -8
-3 -19 -7 -25 -9 -5 -1 -23 -8 -40 -15 -16 -7 -32 -13 -35 -13 -14 -4 -105
-47 -195 -92 -222 -113 -440 -275 -625 -464 -91 -94 -125 -134 -238 -285 -22
-30 -82 -126 -82 -132 0 -3 -6 -14 -14 -22 -22 -25 -121 -229 -150 -308 l-26
-73 28 0 c24 0 32 7 50 48 12 27 22 52 22 57 0 26 184 367 208 385 4 3 19 23
34 46 65 101 264 313 398 425 63 53 236 179 245 179 2 0 19 10 38 23 96 65
462 223 560 241 12 3 22 5 22 6 0 3 30 10 122 29 82 17 129 18 188 6 45 -9 67
-14 85 -20 10 -3 29 -8 42 -11 40 -9 73 -20 99 -34 20 -10 48 5 34 18 -19 18
-146 58 -192 61 -7 1 -13 6 -13 12 0 6 7 9 15 5 8 -3 15 -2 15 2 0 16 404 1
467 -17 17 -5 33 -7 36 -5 9 9 244 -42 334 -72 25 -9 53 -17 62 -19 118 -27
417 -171 581 -281 63 -42 117 -80 118 -85 2 -5 8 -9 14 -9 31 0 294 -258 401
-393 133 -168 275 -409 338 -574 8 -22 52 -33 62 -15 5 7 -21 66 -84 193 -34
69 -53 104 -91 170 -19 34 -140 213 -147 219 -3 3 -18 21 -33 40 -72 96 -248
272 -363 364 -33 26 -69 54 -79 63 -52 42 -229 151 -329 202 -166 85 -422 185
-502 196 -11 1 -38 7 -60 13 -22 6 -53 13 -70 16 -16 3 -50 10 -75 15 -25 5
-67 12 -95 16 -27 4 -66 8 -85 11 -37 5 -338 12 -342 9z"/>
<path d="M2487 4784 c-1 -1 -40 -4 -87 -8 -47 -3 -96 -7 -110 -9 -14 -3 -47
-8 -75 -12 -27 -4 -59 -9 -70 -12 -11 -2 -29 -6 -40 -8 -41 -7 -142 -36 -230
-66 -82 -28 -293 -124 -305 -138 -3 -3 -27 -17 -53 -31 -27 -14 -57 -33 -68
-43 -10 -10 -19 -15 -19 -12 0 4 -6 0 -14 -7 -8 -7 -26 -22 -42 -33 -112 -80
-274 -235 -349 -333 -21 -29 -43 -52 -47 -52 -4 0 -8 -4 -8 -9 0 -4 -22 -42
-49 -83 -88 -134 -215 -380 -245 -475 -4 -13 -14 -24 -22 -24 -8 -1 -17 -2
-21 -4 -5 -1 -21 -5 -38 -10 -43 -11 -177 -74 -197 -92 -10 -9 -18 -12 -18 -7
0 5 -4 4 -8 -2 -4 -6 -28 -24 -53 -42 -71 -48 -163 -138 -196 -190 -19 -30
-30 -63 -32 -93 -4 -72 21 -91 214 -169 125 -50 256 -131 255 -158 -1 -4 -33
-32 -72 -62 -111 -86 -291 -268 -315 -320 -67 -145 131 -111 286 49 62 65 106
136 129 211 12 36 21 63 22 60 1 -3 3 -12 5 -20 13 -62 102 -250 159 -337 22
-33 28 -55 30 -110 2 -38 10 -79 17 -91 18 -28 54 -36 88 -19 28 14 30 13 92
-47 243 -234 587 -436 879 -517 63 -17 144 -40 180 -50 36 -10 74 -20 85 -22
11 -2 27 -7 35 -10 18 -7 62 -15 115 -23 21 -3 42 -7 46 -10 14 -8 155 -17
269 -17 97 0 225 8 225 13 0 1 18 3 40 5 22 1 40 4 40 5 0 1 11 4 25 6 14 3
66 14 115 26 50 12 93 22 97 22 3 1 10 4 14 8 4 5 15 8 23 8 16 0 129 41 216
78 81 35 246 123 327 174 116 74 208 140 208 150 0 4 6 8 13 8 7 0 20 8 29 18
8 9 26 25 39 34 77 56 283 261 346 343 21 28 41 52 46 53 4 2 7 8 7 13 0 9 38
69 51 79 18 14 135 280 124 280 -3 0 -1 9 5 21 6 11 12 33 12 49 1 20 8 31 25
39 30 14 36 14 28 0 -15 -24 -33 -124 -25 -133 12 -12 9 -18 64 97 54 113 74
124 95 52 17 -59 51 -96 82 -88 23 6 59 35 59 48 0 9 30 38 34 34 2 -2 14 -24
26 -49 12 -25 31 -57 41 -71 26 -37 33 -74 17 -90 -39 -43 -90 -147 -86 -177
4 -36 38 -41 70 -10 39 37 60 88 64 153 3 62 16 84 125 205 41 46 79 95 79
103 0 16 -29 5 -43 -15 -9 -13 -28 -37 -44 -55 -55 -62 -108 -126 -117 -141
-6 -11 -17 -1 -45 44 -56 89 -71 132 -57 171 13 38 40 60 81 65 32 3 38 21 10
26 -39 8 -115 -38 -115 -69 0 -21 -77 -136 -96 -143 -21 -8 -44 17 -56 62 -21
77 -60 92 -104 40 -25 -31 -27 -31 -20 -8 4 14 9 36 12 49 3 14 7 28 10 32 2
4 0 10 -6 14 -8 5 -30 -33 -32 -55 -1 -11 -40 -60 -48 -60 -4 0 -6 12 -4 28 3
15 6 88 8 162 l3 135 61 -1 c46 -1 62 2 62 12 0 14 -4 15 -77 18 -23 1 -44 4
-46 6 -3 3 -8 25 -12 50 -3 25 -8 59 -11 75 -3 17 -7 44 -10 60 -6 40 -43 171
-59 215 -8 19 -17 46 -21 60 -18 66 -100 213 -177 319 -67 91 -265 290 -289
291 -4 0 -15 8 -25 18 -23 24 -170 125 -215 148 -18 9 -35 20 -38 23 -3 3 -23
15 -45 26 -22 11 -42 22 -45 25 -7 7 -319 160 -326 160 -3 0 -20 6 -37 14 -69
32 -316 103 -386 112 -20 2 -43 7 -52 9 -9 3 -34 7 -55 10 -82 9 -126 15 -134
20 -5 3 -11 1 -15 -5 -4 -6 -12 -7 -18 -3 -10 6 -183 13 -190 7z m-1837 -1396
c0 -7 -10 -42 -21 -78 -11 -36 -23 -83 -26 -105 -2 -21 -6 -42 -9 -46 -17 -29
-25 -368 -9 -449 l6 -35 -23 25 c-35 40 -109 80 -272 150 -117 50 -153 70
-166 93 -30 48 -3 122 72 196 101 102 244 192 381 241 63 23 67 24 67 8z m-75
-788 c-21 -116 -103 -239 -214 -318 -41 -29 -131 -72 -152 -72 -24 0 -30 24
-13 49 8 11 13 21 10 21 -10 0 99 127 132 153 12 11 38 33 56 50 19 18 58 52
87 77 97 83 102 85 94 40z m4500 -106 c-6 -51 -66 -137 -79 -115 -6 10 64 151
75 151 5 0 7 -16 4 -36z m-4174 -441 c-38 -30 -65 -6 -70 62 l-3 40 44 -45
c38 -39 42 -47 29 -57z"/>
<path d="M4501 4241 c-8 -13 -6 -23 7 -37 14 -16 116 -141 166 -204 51 -66
154 -247 202 -355 55 -126 54 -125 84 -125 27 0 28 2 20 31 -14 47 -132 289
-142 289 -4 0 -8 5 -8 11 0 18 -48 92 -142 217 -135 181 -167 211 -187 173z"/>
<path d="M320 1950 c-11 -7 -10 -16 5 -52 19 -41 114 -228 138 -271 28 -48
151 -233 164 -246 8 -7 22 -26 31 -40 23 -36 70 -88 187 -208 86 -89 130 -129
248 -223 11 -8 24 -20 31 -25 27 -25 195 -135 205 -135 6 0 11 -4 11 -8 0 -4
26 -21 58 -37 31 -15 68 -36 82 -46 14 -9 30 -18 35 -19 6 -2 42 -18 80 -35
85 -40 249 -104 273 -108 9 -1 22 -5 27 -8 12 -7 210 -60 240 -64 82 -11 121
-18 127 -21 5 -4 61 -10 148 -18 14 -1 31 -6 38 -10 7 -4 12 -3 12 2 0 5 19 6
43 3 99 -15 384 -2 546 24 83 14 124 22 246 51 11 3 31 7 44 10 14 3 28 7 33
10 4 3 16 7 25 9 67 13 359 131 391 157 6 6 12 7 12 2 0 -5 4 -4 8 1 4 6 27
20 52 33 236 119 531 348 665 517 22 27 45 56 52 63 17 18 215 309 246 362 25
41 146 278 146 283 0 1 3 10 7 20 9 25 4 27 -59 30 -65 3 -53 19 -111 -156
-37 -112 -103 -260 -117 -265 -5 -2 -9 -8 -9 -14 0 -20 -160 -214 -247 -299
-301 -296 -694 -506 -1103 -590 -87 -18 -95 -20 -135 -24 -22 -3 -50 -7 -62
-9 -134 -27 -544 -27 -713 -1 -14 2 -45 7 -70 10 -41 6 -145 26 -210 39 -112
24 -318 90 -425 136 -91 39 -239 113 -280 139 -22 14 -56 34 -75 44 -123 67
-275 189 -415 333 -112 116 -105 107 -165 189 -25 33 -47 62 -50 65 -12 11
-90 139 -125 205 -21 39 -41 75 -45 80 -4 6 -15 32 -25 58 -19 50 -43 71 -69
61 -17 -7 -16 -12 42 -134 44 -94 168 -303 183 -308 5 -2 9 -8 9 -13 0 -20
117 -157 229 -269 164 -163 328 -283 531 -387 41 -21 77 -41 78 -45 2 -5 10
-8 17 -8 7 0 30 -9 52 -19 48 -24 97 -45 148 -64 22 -8 49 -18 60 -23 27 -10
33 -11 85 -24 25 -7 54 -15 65 -20 66 -27 202 -63 280 -74 22 -4 65 -11 95
-16 142 -25 486 -39 635 -25 22 2 65 6 95 9 50 4 154 20 206 30 12 2 39 7 60
11 21 3 60 12 87 20 26 8 49 14 52 15 9 1 31 8 130 40 103 33 119 39 244 96
92 43 102 43 31 1 -96 -56 -245 -124 -370 -169 -126 -45 -338 -101 -430 -113
-25 -3 -52 -8 -60 -10 -8 -2 -42 -6 -75 -10 -33 -3 -80 -9 -105 -12 -131 -16
-438 -4 -580 23 -14 3 -41 6 -60 8 -29 3 -164 34 -220 51 -17 5 -89 24 -105
28 -11 3 -63 23 -110 42 -16 7 -61 25 -100 41 -82 33 -299 152 -368 200 -26
19 -49 34 -52 34 -3 0 -18 11 -33 25 -15 14 -30 25 -35 25 -4 0 -22 13 -40 30
-18 16 -35 30 -38 30 -3 0 -17 10 -31 22 -13 13 -42 38 -64 56 -212 180 -437
468 -560 717 -27 55 -52 102 -56 103 -5 2 -8 10 -8 17 0 22 -21 63 -35 69 -6
2 -18 0 -25 -4z"/>
<path d="M1083 1660 l-102 -99 20 -23 c11 -13 18 -18 15 -13 -2 6 38 53 89
104 85 85 96 93 112 80 10 -7 7 0 -7 16 -14 17 -25 31 -25 32 0 1 -46 -43
-102 -97z"/>
<path d="M4158 1692 c-17 -3 -27 -23 -10 -21 24 4 44 -4 66 -28 22 -24 26 -25
32 -10 3 10 1 24 -5 31 -15 18 -61 33 -83 28z"/>
<path d="M1246 1679 c23 -28 21 -54 -8 -81 -30 -31 -40 -33 -68 -18 -18 10
-18 8 -5 -17 25 -49 -3 -92 -61 -93 -16 0 -36 6 -44 13 -12 10 -12 9 -1 -5 21
-28 79 -40 111 -23 36 19 40 32 24 72 -13 32 -12 32 15 27 31 -7 70 20 75 51
4 23 -18 70 -36 81 -10 6 -10 5 -2 -7z"/>
<path d="M4077 1620 c-18 -65 4 -115 63 -149 20 -11 39 -19 41 -16 2 2 16 5
31 7 35 5 46 15 16 15 -61 -1 -124 57 -136 124 -7 39 -9 41 -15 19z"/>
<path d="M4299 1580 c-1 -14 -1 -29 0 -33 1 -4 -4 -17 -10 -29 -7 -12 -7 -18
-1 -14 19 11 35 77 23 89 -8 8 -11 4 -12 -13z"/>
<path d="M3896 1535 c4 -11 8 -30 9 -41 1 -20 52 -90 103 -142 22 -23 82 -39
82 -21 0 5 -6 9 -14 9 -7 0 -24 14 -37 32 -13 17 -29 36 -34 42 -41 45 -64 79
-59 88 4 6 2 8 -4 4 -5 -3 -20 6 -32 21 -15 20 -19 22 -14 8z"/>
<path d="M1273 1500 c-56 -33 -78 -102 -54 -162 14 -37 18 -35 13 6 -8 71 68
162 132 159 26 -2 28 -1 11 7 -33 14 -68 11 -102 -10z"/>
<path d="M1417 1462 c17 -68 -73 -172 -142 -163 -17 1 -16 -1 5 -12 66 -36
161 42 156 129 -1 25 -8 50 -14 56 -8 8 -9 5 -5 -10z"/>
<path d="M3764 1407 c6 -36 18 -64 43 -96 7 -9 26 -35 43 -58 25 -36 35 -43
63 -42 28 0 30 2 12 11 -11 5 -47 51 -80 102 -79 121 -88 130 -81 83z"/>
<path d="M4129 1418 c-5 -14 -3 -66 2 -62 11 6 17 54 8 60 -5 3 -9 4 -10 2z"/>
<path d="M1446 1320 c-31 -51 -56 -98 -56 -106 0 -32 32 -10 61 42 18 31 38
58 45 61 8 3 11 9 8 15 -3 5 2 18 12 29 16 18 16 21 2 35 -14 14 -21 6 -72
-76z"/>
<path d="M1609 1332 c26 -20 24 -27 -38 -130 -36 -61 -41 -75 -31 -88 12 -13
17 -8 44 38 16 29 33 55 36 58 10 8 40 72 40 86 0 14 -47 54 -62 54 -6 0 0 -8
11 -18z"/>
<path d="M3680 1319 c0 -5 6 -9 14 -9 19 0 58 -50 52 -66 -3 -7 2 -10 15 -7
26 7 24 35 -3 61 -24 22 -78 37 -78 21z"/>
<path d="M3604 1279 c-13 -15 -19 -36 -19 -71 0 -44 4 -53 37 -84 28 -25 47
-34 70 -33 33 0 33 0 8 12 -30 14 -81 67 -75 78 3 4 1 10 -5 14 -13 8 -13 61
0 86 14 25 8 24 -16 -2z"/>
<path d="M3975 1275 c0 -14 3 -25 6 -25 10 0 20 31 13 41 -10 17 -19 9 -19
-16z"/>
<path d="M1680 1226 c-12 -28 -22 -54 -21 -58 0 -5 -3 -8 -8 -8 -5 0 -12 -13
-16 -30 -4 -16 -11 -32 -16 -35 -15 -10 -10 -22 10 -28 14 -3 23 3 31 24 7 15
11 31 10 35 -1 4 3 10 8 13 11 7 48 87 54 115 2 11 -3 20 -13 21 -11 2 -24
-14 -39 -49z"/>
<path d="M1828 1217 l21 -22 -22 -50 c-12 -27 -31 -70 -43 -95 -16 -32 -18
-47 -10 -52 19 -13 24 -9 37 27 7 19 17 35 21 35 4 0 8 6 8 13 0 6 6 24 14 38
33 63 23 110 -25 122 l-21 6 20 -22z"/>
<path d="M3479 1216 c-11 -11 -19 -27 -19 -35 1 -13 3 -13 11 2 6 10 22 22 35
27 13 5 24 13 24 18 0 16 -32 9 -51 -12z"/>
<path d="M3392 1181 c-11 -6 -4 -30 29 -110 24 -55 48 -101 55 -101 21 0 23
27 3 64 -10 20 -19 45 -19 56 0 11 -4 20 -10 20 -5 0 -15 18 -21 40 -13 42
-16 45 -37 31z"/>
<path d="M3803 1184 c3 -4 -1 -21 -9 -38 l-15 -31 26 28 c24 27 26 47 3 47 -6
0 -9 -3 -5 -6z"/>
<path d="M1902 1106 c-13 -40 -21 -88 -20 -105 2 -32 30 -71 50 -71 6 0 4 8
-5 18 -20 22 -17 64 13 151 17 52 19 66 8 72 -22 14 -23 12 -46 -65z"/>
<path d="M3297 1138 c21 -10 51 -64 45 -81 -1 -5 5 -7 15 -5 45 9 -13 99 -62
97 -19 0 -19 -1 2 -11z"/>
<path d="M2246 1132 c-2 -4 -7 -25 -10 -47 -15 -104 -22 -142 -31 -187 -7 -28
10 -47 26 -31 5 5 12 23 15 39 2 16 9 52 14 79 5 28 11 64 14 80 3 17 7 39 9
50 4 15 0 21 -14 22 -10 1 -20 -1 -23 -5z"/>
<path d="M3206 1115 c-41 -35 -48 -102 -15 -149 24 -36 57 -56 87 -56 14 1 14
2 -3 12 -20 12 -54 46 -56 57 0 3 -2 15 -5 26 -14 65 -13 84 7 109 26 32 22
33 -15 1z"/>
<path d="M2060 1063 c-13 -38 -26 -72 -30 -77 -5 -5 -6 -14 -4 -21 3 -7 1 -16
-5 -20 -6 -3 -11 -14 -11 -24 0 -22 -32 -61 -50 -61 -7 0 -10 -3 -7 -6 13 -13
67 19 86 50 24 40 74 203 66 216 -13 21 -24 7 -45 -57z"/>
<path d="M2360 1122 c0 -8 42 -32 55 -32 3 0 5 7 5 16 0 8 -4 12 -10 9 -5 -3
-19 -1 -30 5 -11 6 -20 7 -20 2z"/>
<path d="M2478 1103 c-13 -3 -18 -15 -19 -41 -1 -20 -2 -48 -4 -62 -16 -158
-16 -170 5 -170 15 0 20 7 21 28 1 15 2 38 4 52 6 59 15 200 13 199 -2 -1 -11
-3 -20 -6z"/>
<path d="M3105 1073 c2 -10 4 -20 4 -23 2 -7 21 23 21 33 0 4 -6 7 -14 7 -8 0
-13 -8 -11 -17z"/>
<path d="M2949 1063 c-5 -31 -5 -52 0 -48 4 2 27 -32 50 -75 43 -76 64 -99 76
-80 6 9 -27 75 -64 130 -9 14 -22 37 -29 53 -11 25 -30 37 -33 20z"/>
<path d="M2587 1041 c-45 -29 -55 -52 -53 -113 3 -61 14 -81 57 -104 40 -20
41 -18 8 15 -26 26 -37 64 -30 104 1 4 2 20 3 34 2 14 15 39 29 54 31 33 26
37 -14 10z"/>
<path d="M2670 1051 c0 -4 7 -14 15 -21 14 -12 30 -74 28 -110 -2 -39 -17 -80
-29 -80 -8 0 -14 -4 -14 -10 0 -13 6 -13 31 0 45 24 63 114 35 169 -15 28 -66
69 -66 52z"/>
<path d="M2775 1040 c-4 -6 -2 -16 3 -23 12 -15 47 -77 79 -139 13 -27 28 -48
32 -48 15 0 19 49 5 61 -7 6 -27 38 -45 72 -45 88 -59 102 -74 77z"/>
<path d="M3106 1023 c-6 -14 -5 -15 5 -6 7 7 10 15 7 18 -3 3 -9 -2 -12 -12z"/>
<path d="M3367 956 c-33 -42 -31 -45 8 -12 15 13 26 29 23 36 -2 7 -15 -3 -31
-24z"/>
<path d="M1830 886 c0 -15 57 -43 67 -32 3 3 0 6 -8 6 -8 0 -21 9 -29 20 -17
23 -30 26 -30 6z"/>
</g>
</svg>
